<mxfile host="app.diagrams.net" modified="2023-06-05T15:42:33.741Z" agent="Mozilla/5.0 (Windows NT 10.0; Win64; x64) AppleWebKit/537.36 (KHTML, like Gecko) Chrome/113.0.0.0 Safari/537.36" etag="2iy3Ck27X9BCgscEYgbR" version="21.3.0" type="github">
  <diagram name="第 1 页" id="UZkDw6Ez3q2D44-KWNET">
    <mxGraphModel dx="1032" dy="1114" grid="1" gridSize="10" guides="1" tooltips="1" connect="1" arrows="1" fold="1" page="1" pageScale="1" pageWidth="827" pageHeight="1169" math="0" shadow="0">
      <root>
        <mxCell id="0" />
        <mxCell id="1" parent="0" />
        <mxCell id="Yn0-w5VhbwrrsI0HFecE-1" value="" style="rounded=0;whiteSpace=wrap;html=1;" vertex="1" parent="1">
          <mxGeometry x="60" y="160" width="260" height="170" as="geometry" />
        </mxCell>
        <mxCell id="Yn0-w5VhbwrrsI0HFecE-2" value="" style="rounded=0;whiteSpace=wrap;html=1;" vertex="1" parent="1">
          <mxGeometry x="350" y="160" width="260" height="170" as="geometry" />
        </mxCell>
        <mxCell id="Yn0-w5VhbwrrsI0HFecE-3" value="Gateway" style="sketch=0;outlineConnect=0;fontColor=#232F3E;gradientColor=none;strokeColor=#232F3E;fillColor=#ffffff;dashed=0;verticalLabelPosition=bottom;verticalAlign=top;align=center;html=1;fontSize=12;fontStyle=0;aspect=fixed;shape=mxgraph.aws4.resourceIcon;resIcon=mxgraph.aws4.customer_gateway;" vertex="1" parent="1">
          <mxGeometry x="300" y="360" width="60" height="60" as="geometry" />
        </mxCell>
      </root>
    </mxGraphModel>
  </diagram>
</mxfile>
